<?xml version="1.0" encoding="utf-8"?>
<!-- Generator: Adobe Illustrator 23.0.1, SVG Export Plug-In . SVG Version: 6.00 Build 0)  -->
<svg version="1.1" id="Layer_1" xmlns="http://www.w3.org/2000/svg" xmlns:xlink="http://www.w3.org/1999/xlink" x="0px" y="0px"
	 viewBox="0 0 812 311.4" style="enable-background:new 0 0 812 311.4;" xml:space="preserve">
<style type="text/css">
	.st0{fill:#2D2519;}
	.st1{opacity:5.000000e-02;}
	.st2{clip-path:url(#SVGID_2_);}
	.st3{fill-rule:evenodd;clip-rule:evenodd;fill:url(#SVGID_3_);}
	.st4{fill-rule:evenodd;clip-rule:evenodd;fill:url(#SVGID_4_);}
	.st5{fill-rule:evenodd;clip-rule:evenodd;fill:#FFFFFF;}
	.st6{fill-rule:evenodd;clip-rule:evenodd;fill:url(#SVGID_5_);}
	.st7{fill-rule:evenodd;clip-rule:evenodd;fill:url(#SVGID_6_);}
	.st8{fill:#FFFFFF;}
	.st9{font-family:'Rockwell';}
	.st10{font-size:118.1878px;}
	.st11{fill:#FCAF15;}
	.st12{fill-rule:evenodd;clip-rule:evenodd;fill:url(#SVGID_7_);}
	.st13{fill-rule:evenodd;clip-rule:evenodd;fill:url(#SVGID_8_);}
</style>
<g>
	<text transform="matrix(1 0 0 1 335.2651 217.6473)"><tspan x="0" y="0" class="st8 st9 st10">Gift</tspan><tspan x="199.4" y="0" class="st11 st9 st10">Store</tspan></text>
	<g>
		<linearGradient id="SVGID_2_" gradientUnits="userSpaceOnUse" x1="19.3105" y1="187.6713" x2="296.8195" y2="187.6713">
			<stop  offset="0" style="stop-color:#FCAF15"/>
			<stop  offset="0.5273" style="stop-color:#FCAF15"/>
			<stop  offset="1" style="stop-color:#F97716"/>
		</linearGradient>
		<path style="fill-rule:evenodd;clip-rule:evenodd;fill:url(#SVGID_2_);" d="M287.1,77.2c-84.3,0-173.7,0-258,0
			c-2.6,0-9.7-1.4-9.7,8.5v50.1c0,5.4,4.4,9.7,9.7,9.7h9.7v133.2c0,10.7,8.7,19.5,19.5,19.5c64.9,0,134.8,0,199.7,0
			c10.7,0,19.5-8.7,19.5-19.5V145.5h9.7c5.4,0,9.7-4.3,9.7-9.7V87C296.8,75.3,290.2,77.2,287.1,77.2z"/>
		<linearGradient id="SVGID_3_" gradientUnits="userSpaceOnUse" x1="286.0993" y1="227.5181" x2="71.2663" y2="147.2083">
			<stop  offset="0" style="stop-color:#FCAF15"/>
			<stop  offset="0.5273" style="stop-color:#FCAF15"/>
			<stop  offset="1" style="stop-color:#F97716"/>
		</linearGradient>
		<path class="st3" d="M287.1,77.2l-99.4,0c-46,26.4-86.7,78.9-107.2,146c-7.8,25.4-12,50.8-13,75l190.4,0
			c10.7,0,19.5-8.7,19.5-19.5V145.5h9.7c5.4,0,9.7-4.3,9.7-9.7V87C296.8,75.3,290.2,77.2,287.1,77.2z"/>
		<path class="st5" d="M291.9,58.4h-52.4l40.5-24.5c12.3-7.4,1.1-25.3-10.6-18.3l-45.9,27.8c0.2-1.4,0.3-2.9,0.3-4.4
			c0-21.5-17.4-38.9-38.9-38.9c-11.7,0-22.1,5.3-29.2,13.4C148.6,5.3,138.2,0,126.5,0c-23.2,0-41.4,20.3-38.7,43.3l-46-27.8
			C30.2,8.5,19,26.4,31.3,33.9l40.5,24.5H19.5C8.7,58.4,0,67.1,0,77.8v52.6c0,10.7,8.7,19.5,19.5,19.5v122.6
			c0,21.5,17.4,38.9,38.9,38.9l194.6,0c21.5,0,38.9-17.4,38.9-38.9V149.9c10.7,0,19.5-8.7,19.5-19.5V77.8
			C311.4,67.1,302.7,58.4,291.9,58.4z M29.2,130.4c-5.4,0-9.7-4.3-9.7-9.7V86.3c0-9.9,7.1-8.5,9.7-8.5h84v52.6H29.2z M58.4,291.9
			c-10.7,0-19.5-8.7-19.5-19.5V149.9h74.3l0.1,142.1H58.4z M107,38.9c0-10.7,8.7-19.5,19.5-19.5c10.7,0,19.5,8.7,19.5,19.5
			c0,10.7-8.7,19.5-19.5,19.5C115.8,58.4,107,49.7,107,38.9z M134.2,291.9l0.1-214.1h42.8l0.1,214.1H134.2z M165.4,38.9
			c0-10.7,8.7-19.5,19.5-19.5c10.7,0,19.5,8.7,19.5,19.5c0,10.7-8.7,19.5-19.5,19.5C174.1,58.4,165.4,49.7,165.4,38.9z M272.5,272.5
			c0,10.7-8.7,19.5-19.5,19.5h-54.9l0.1-142.1h74.3V272.5z M291.9,120.7c0,5.4-4.4,9.7-9.7,9.7h-84V77.8l84,0c3.1,0,9.7-2,9.7,9.7
			V120.7z"/>
	</g>
</g>
</svg>
